<?xml version="1.0" encoding="UTF-8"?>
<!DOCTYPE svg PUBLIC "-//W3C//DTD SVG 1.1//EN" "http://www.w3.org/Graphics/SVG/1.1/DTD/svg11.dtd">
<svg xmlns="http://www.w3.org/2000/svg" version="1.1" width="512px" height="512px" style="shape-rendering:geometricPrecision; text-rendering:geometricPrecision; image-rendering:optimizeQuality; fill-rule:evenodd; clip-rule:evenodd" xmlns:xlink="http://www.w3.org/1999/xlink">
<g><path style="opacity:0.934" fill="#000000" d="M 511.5,292.5 C 511.5,295.167 511.5,297.833 511.5,300.5C 509.641,302.573 507.308,303.906 504.5,304.5C 503.668,313.816 503.168,323.149 503,332.5C 501.786,334.049 500.286,335.215 498.5,336C 492.141,336.169 485.807,336.669 479.5,337.5C 471.77,371.399 450.604,389.732 416,392.5C 380.26,390.255 359.093,371.589 352.5,336.5C 290.5,336.5 228.5,336.5 166.5,336.5C 159.907,371.589 138.74,390.255 103,392.5C 68.3964,389.732 47.2297,371.399 39.5,337.5C 31.1866,336.668 22.8532,336.168 14.5,336C 6.38905,334.052 2.05571,328.885 1.5,320.5C 2.84186,314.814 4.17519,309.147 5.5,303.5C 3.05322,303.385 1.05322,302.385 -0.5,300.5C -0.5,297.833 -0.5,295.167 -0.5,292.5C 2.54217,289.256 6.37551,287.589 11,287.5C 21.3863,246.063 39.7197,208.73 66,175.5C 95.5032,142 132.67,123.833 177.5,121C 216.904,117.302 256.237,117.968 295.5,123C 304.777,125.053 312.61,129.553 319,136.5C 332.5,157.333 346,178.167 359.5,199C 382.969,200.48 406.302,203.147 429.5,207C 448.505,209.752 464.671,217.919 478,231.5C 483.513,239.858 489.513,247.858 496,255.5C 502.44,265.593 504.94,276.593 503.5,288.5C 506.852,288.53 509.518,289.863 511.5,292.5 Z M 205.5,134.5 C 224.852,134.3 244.185,134.8 263.5,136C 274.996,136.444 286.33,137.944 297.5,140.5C 298.833,141.167 298.833,141.833 297.5,142.5C 291.549,143.932 289.049,147.599 290,153.5C 296.895,168.289 304.061,182.956 311.5,197.5C 308.167,198.833 304.833,198.833 301.5,197.5C 295.942,184.05 290.108,170.716 284,157.5C 279.768,151.274 273.934,147.441 266.5,146C 232.508,141.494 198.842,143.161 165.5,151C 144.899,156.64 127.732,167.474 114,183.5C 107.674,191.98 104.507,201.48 104.5,212C 85.8979,215.761 67.8979,221.094 50.5,228C 62.104,205.816 77.104,186.149 95.5,169C 111.289,155.772 129.289,146.772 149.5,142C 168.161,138.335 186.828,135.835 205.5,134.5 Z M 309.5,155.5 C 310.822,155.33 311.989,155.663 313,156.5C 321.459,170.588 330.292,184.421 339.5,198C 336.118,198.824 332.784,198.657 329.5,197.5C 322.271,183.71 315.604,169.71 309.5,155.5 Z M 212.5,159.5 C 230.977,158.853 249.311,160.02 267.5,163C 273.695,174.391 279.362,186.058 284.5,198C 229.93,198.035 175.596,201.535 121.5,208.5C 122.988,199.158 127.321,191.324 134.5,185C 145.772,176.031 158.439,169.697 172.5,166C 185.817,162.841 199.15,160.674 212.5,159.5 Z M 241.5,214.5 C 282.845,214.195 324.178,214.695 365.5,216C 387.733,216.823 409.733,219.49 431.5,224C 397.8,222.943 369.3,234.443 346,258.5C 342.498,262.751 342.164,267.085 345,271.5C 347.917,273.393 351.084,273.893 354.5,273C 381.282,243.468 413.949,234.135 452.5,245C 460.608,248.22 468.274,252.22 475.5,257C 484.908,265.386 488.908,275.886 487.5,288.5C 482.782,288.74 480.116,291.24 479.5,296C 480.22,300.388 482.72,303.221 487,304.5C 487.499,309.823 487.666,315.156 487.5,320.5C 484.833,320.5 482.167,320.5 479.5,320.5C 472.863,285.363 451.696,266.696 416,264.5C 380.293,266.708 359.126,285.375 352.5,320.5C 347.167,320.5 341.833,320.5 336.5,320.5C 336.485,316.44 336.985,312.44 338,308.5C 339.944,302.17 341.778,295.837 343.5,289.5C 341.845,281.84 337.512,279.84 330.5,283.5C 324.31,294.903 320.644,307.069 319.5,320C 276.833,320.667 234.167,320.667 191.5,320C 189.684,304.218 184.851,289.385 177,275.5C 173.547,272.231 169.714,271.731 165.5,274C 163.703,275.594 162.703,277.594 162.5,280C 165.798,288.099 168.965,296.266 172,304.5C 173.546,309.73 174.38,315.063 174.5,320.5C 171.833,320.5 169.167,320.5 166.5,320.5C 159.874,285.375 138.707,266.708 103,264.5C 67.3127,266.687 46.1461,285.353 39.5,320.5C 32.5,320.5 25.5,320.5 18.5,320.5C 19.6272,315.118 20.9606,309.784 22.5,304.5C 25.8499,304.665 29.1832,304.498 32.5,304C 39.0094,301.12 40.5094,296.62 37,290.5C 34.0696,288.934 30.9029,288.1 27.5,288C 30.4016,278.297 33.9016,268.797 38,259.5C 41.6709,253.497 46.8376,249.331 53.5,247C 88.8298,234.164 120.496,240.164 148.5,265C 155.206,267.647 159.539,265.481 161.5,258.5C 160.818,255.634 159.484,253.134 157.5,251C 144.396,239.612 129.396,231.612 112.5,227C 155.377,220.012 198.377,215.846 241.5,214.5 Z M 95.5,280.5 C 118.831,278.745 135.998,288.078 147,308.5C 156.515,337.627 147.681,359.127 120.5,373C 88.0107,381.171 66.5107,369.338 56,337.5C 53.3947,307.331 66.5613,288.331 95.5,280.5 Z M 407.5,280.5 C 436.624,278.628 455.124,291.628 463,319.5C 465.38,350.24 451.546,369.074 421.5,376C 397.707,377.193 380.873,367.026 371,345.5C 363.962,322.619 369.795,303.785 388.5,289C 394.453,285.081 400.786,282.248 407.5,280.5 Z"/></g>
<g><path style="opacity:0.919" fill="#000000" d="M 96.5,296.5 C 100.911,296.021 105.078,296.688 109,298.5C 112.242,302.621 112.075,306.621 108.5,310.5C 103.811,311.894 99.1448,313.394 94.5,315C 85.5361,323.34 85.2027,332.007 93.5,341C 102.607,346.564 110.441,345.064 117,336.5C 118.625,332.668 119.625,328.668 120,324.5C 122.602,320.788 126.102,319.622 130.5,321C 132.815,322.109 134.315,323.943 135,326.5C 135.382,342.785 127.882,353.619 112.5,359C 91.9739,363.157 78.4739,355.323 72,335.5C 69.5585,315.697 77.7252,302.697 96.5,296.5 Z"/></g>
<g><path style="opacity:0.92" fill="#000000" d="M 408.5,296.5 C 412.182,296.335 415.848,296.501 419.5,297C 424.446,301.3 424.779,305.967 420.5,311C 408.637,311.235 401.637,317.068 399.5,328.5C 403.261,343.215 411.927,347.382 425.5,341C 427.378,339.457 428.878,337.624 430,335.5C 430.957,331.044 432.29,326.711 434,322.5C 438.962,319.351 443.295,320.018 447,324.5C 447.805,346.031 437.472,358.031 416,360.5C 392,357.167 381.667,343.5 385,319.5C 388.779,307.553 396.612,299.886 408.5,296.5 Z"/></g>
</svg>
