<?xml version="1.0" encoding="UTF-8"?>
<!DOCTYPE svg PUBLIC "-//W3C//DTD SVG 1.1//EN" "http://www.w3.org/Graphics/SVG/1.1/DTD/svg11.dtd">
<svg xmlns="http://www.w3.org/2000/svg" version="1.1" width="512px" height="512px" style="shape-rendering:geometricPrecision; text-rendering:geometricPrecision; image-rendering:optimizeQuality; fill-rule:evenodd; clip-rule:evenodd" xmlns:xlink="http://www.w3.org/1999/xlink">
<g><path style="opacity:0.935" fill="#000000" d="M 511.5,264.5 C 511.5,279.167 511.5,293.833 511.5,308.5C 506.891,323.385 497.057,329.051 482,325.5C 478.682,319.941 479.848,315.441 485.5,312C 490.341,312.17 493.508,310.004 495,305.5C 496.511,294.878 496.844,284.211 496,273.5C 489.779,271.727 483.279,270.894 476.5,271C 469.833,266 469.833,261 476.5,256C 480.167,255.667 483.833,255.333 487.5,255C 480.28,250.702 472.614,247.369 464.5,245C 438.017,237.502 411.017,233.169 383.5,232C 318.5,231.667 253.5,231.333 188.5,231C 182.741,227.108 182.074,222.441 186.5,217C 196.061,215.552 205.727,215.052 215.5,215.5C 215.5,202.167 215.5,188.833 215.5,175.5C 199.163,175.333 182.83,175.5 166.5,176C 160.705,176.592 155.039,177.759 149.5,179.5C 146.123,191.043 143.123,202.71 140.5,214.5C 148.581,215.061 156.581,215.895 164.5,217C 168.809,222.42 168.142,227.086 162.5,231C 149.947,232.339 137.613,231.339 125.5,228C 121.172,226.171 117.172,223.838 113.5,221C 107.957,215.121 102.123,209.621 96,204.5C 85.5985,209.523 74.7652,213.356 63.5,216C 49.2022,218.246 34.8689,220.246 20.5,222C 18.3333,222.833 16.8333,224.333 16,226.5C 14.7101,230.73 14.2101,235.064 14.5,239.5C 18.5138,239.334 22.5138,239.501 26.5,240C 33.2554,245.484 32.922,250.484 25.5,255C 21.8484,255.499 18.1817,255.665 14.5,255.5C 14.3337,262.841 14.5003,270.174 15,277.5C 15.5362,284.076 18.7028,288.909 24.5,292C 34.7268,295.306 45.0601,298.14 55.5,300.5C 60.0595,269.446 78.0595,254.613 109.5,256C 135.335,261.336 149.335,277.17 151.5,303.5C 151.297,306.197 150.964,308.864 150.5,311.5C 223.167,311.5 295.833,311.5 368.5,311.5C 365.771,287.122 375.438,269.622 397.5,259C 421.159,251.286 440.659,257.119 456,276.5C 469.875,302.813 465.375,325.313 442.5,344C 415.339,357.871 392.673,352.704 374.5,328.5C 297.833,327.167 221.167,327.167 144.5,328.5C 129.449,349.905 109.449,356.405 84.5,348C 71.0447,341.877 61.7114,331.877 56.5,318C 41.5162,314.256 26.8495,309.589 12.5,304C 6.27472,299.01 1.94138,292.843 -0.5,285.5C -0.5,264.5 -0.5,243.5 -0.5,222.5C 2.22525,215.272 7.22525,210.106 14.5,207C 32.6112,204.653 50.6112,201.653 68.5,198C 87.8633,189.819 106.863,180.819 125.5,171C 138.23,165.151 151.563,161.484 165.5,160C 197.5,159.333 229.5,159.333 261.5,160C 276.318,161.717 290.318,166.051 303.5,173C 325.5,187 347.5,201 369.5,215C 401.659,215.811 433.326,220.145 464.5,228C 476.108,231.306 487.108,235.973 497.5,242C 504.115,248.415 508.782,255.915 511.5,264.5 Z M 231.5,175.5 C 255.31,172.911 277.643,177.411 298.5,189C 311.998,197.916 325.664,206.583 339.5,215C 303.502,215.5 267.502,215.667 231.5,215.5C 231.5,202.167 231.5,188.833 231.5,175.5 Z M 128.5,187.5 C 129.376,187.369 130.043,187.702 130.5,188.5C 128.604,195.479 126.771,202.479 125,209.5C 120.651,205.318 116.485,200.985 112.5,196.5C 117.896,193.473 123.229,190.473 128.5,187.5 Z M 98.5,271.5 C 118.358,270.862 130.524,280.196 135,299.5C 135.712,317.899 127.212,329.732 109.5,335C 90.3845,336.874 77.8845,328.708 72,310.5C 70.0661,289.969 78.8994,276.969 98.5,271.5 Z M 410.5,271.5 C 436.295,271.794 448.462,284.794 447,310.5C 441.116,328.708 428.616,336.874 409.5,335C 390.162,328.679 381.995,315.512 385,295.5C 389.192,282.805 397.692,274.805 410.5,271.5 Z"/></g>
<g><path style="opacity:0.932" fill="#000000" d="M 172.5,279.5 C 230.501,279.333 288.501,279.5 346.5,280C 351.069,282.541 352.569,286.375 351,291.5C 349.786,293.049 348.286,294.215 346.5,295C 288.5,295.667 230.5,295.667 172.5,295C 167.311,292.087 166.144,287.92 169,282.5C 170.145,281.364 171.312,280.364 172.5,279.5 Z"/></g>
<g><path style="opacity:0.891" fill="#000000" d="M 107.5,289.5 C 115.985,290.798 118.485,295.465 115,303.5C 110.833,307.667 106.667,311.833 102.5,316C 91.9638,318.797 88.1305,314.964 91,304.5C 96.1207,298.87 101.621,293.87 107.5,289.5 Z"/></g>
<g><path style="opacity:0.891" fill="#000000" d="M 409.5,289.5 C 411.179,289.892 412.846,290.392 414.5,291C 419,295.5 423.5,300 428,304.5C 430.87,314.964 427.036,318.797 416.5,316C 412.333,311.833 408.167,307.667 404,303.5C 400.739,296.539 402.573,291.872 409.5,289.5 Z"/></g>
</svg>
