<?xml version="1.0" encoding="UTF-8"?>
<!DOCTYPE svg PUBLIC "-//W3C//DTD SVG 1.1//EN" "http://www.w3.org/Graphics/SVG/1.1/DTD/svg11.dtd">
<svg xmlns="http://www.w3.org/2000/svg" version="1.1" width="512px" height="512px" style="shape-rendering:geometricPrecision; text-rendering:geometricPrecision; image-rendering:optimizeQuality; fill-rule:evenodd; clip-rule:evenodd" xmlns:xlink="http://www.w3.org/1999/xlink">
<g><path style="opacity:0.962" fill="#000000" d="M 511.5,138.5 C 511.5,183.5 511.5,228.5 511.5,273.5C 508.881,283.069 504.381,291.736 498,299.5C 497.667,347.167 497.333,394.833 497,442.5C 493.382,462.788 482.215,477.288 463.5,486C 458.658,487.948 453.658,489.281 448.5,490C 319.833,490.667 191.167,490.667 62.5,490C 39.7738,485.944 24.2738,473.111 16,451.5C 15.2057,448.529 14.539,445.529 14,442.5C 13.6667,394.833 13.3333,347.167 13,299.5C 6.61894,291.736 2.11894,283.069 -0.5,273.5C -0.5,228.5 -0.5,183.5 -0.5,138.5C 5.87274,112.63 22.2061,97.1299 48.5,92C 76.1647,91.5 103.831,91.3334 131.5,91.5C 134.258,52.2427 154.924,28.7427 193.5,21C 234.833,20.3333 276.167,20.3333 317.5,21C 348.613,26.4459 368.78,44.2792 378,74.5C 378.895,80.0379 379.728,85.5379 380.5,91C 407.833,91.3333 435.167,91.6667 462.5,92C 488.794,97.1299 505.127,112.63 511.5,138.5 Z M 200.5,49.5 C 237.168,49.3333 273.835,49.5 310.5,50C 334.466,53.4678 347.799,67.3011 350.5,91.5C 287.167,91.5 223.833,91.5 160.5,91.5C 163.338,67.3322 176.671,53.3322 200.5,49.5 Z M 49.5,111.5 C 108.5,111.5 167.5,111.5 226.5,111.5C 226.5,162.167 226.5,212.833 226.5,263.5C 245.833,263.5 265.167,263.5 284.5,263.5C 284.5,212.833 284.5,162.167 284.5,111.5C 343.501,111.333 402.501,111.5 461.5,112C 476.891,115.724 486.724,125.224 491,140.5C 492.626,181.471 492.96,222.471 492,263.5C 489.13,285.037 476.963,297.204 455.5,300C 407.501,300.5 359.501,300.667 311.5,300.5C 311.5,306.833 311.5,313.167 311.5,319.5C 362.501,319.667 413.501,319.5 464.5,319C 468.648,318.339 472.648,317.173 476.5,315.5C 477.667,357.163 477.833,398.829 477,440.5C 473.167,456.333 463.333,466.167 447.5,470C 319.5,470.667 191.5,470.667 63.5,470C 47.6667,466.167 37.8333,456.333 34,440.5C 33.1667,398.829 33.3334,357.163 34.5,315.5C 38.3517,317.173 42.3517,318.339 46.5,319C 97.4989,319.5 148.499,319.667 199.5,319.5C 199.5,313.167 199.5,306.833 199.5,300.5C 151.499,300.667 103.499,300.5 55.5,300C 34.0369,297.204 21.8703,285.037 19,263.5C 18.3333,224.833 18.3333,186.167 19,147.5C 21.1304,128.547 31.2971,116.547 49.5,111.5 Z"/></g>
<g><path style="opacity:0.962" fill="#000000" d="M 226.5,290.5 C 245.833,290.5 265.167,290.5 284.5,290.5C 284.5,309.833 284.5,329.167 284.5,348.5C 265.167,348.5 245.833,348.5 226.5,348.5C 226.5,329.167 226.5,309.833 226.5,290.5 Z"/></g>
</svg>
