<?xml version="1.0" encoding="UTF-8"?>
<!DOCTYPE svg PUBLIC "-//W3C//DTD SVG 1.1//EN" "http://www.w3.org/Graphics/SVG/1.1/DTD/svg11.dtd">
<svg xmlns="http://www.w3.org/2000/svg" version="1.1" width="512px" height="512px" style="shape-rendering:geometricPrecision; text-rendering:geometricPrecision; image-rendering:optimizeQuality; fill-rule:evenodd; clip-rule:evenodd" xmlns:xlink="http://www.w3.org/1999/xlink">
<g><path style="opacity:0.947" fill="#000000" d="M 511.5,72.5 C 511.5,139.5 511.5,206.5 511.5,273.5C 508.346,280.267 503.013,284.433 495.5,286C 389.132,286.989 282.798,286.656 176.5,285C 170.508,282.341 166.675,277.841 165,271.5C 164.333,205.833 164.333,140.167 165,74.5C 166.736,67.7634 170.903,63.2634 177.5,61C 191.927,60.0349 206.26,60.3682 220.5,62C 223.167,66 223.167,70 220.5,74C 213.272,75.2635 205.939,75.9301 198.5,76C 241.833,106.333 285.167,136.667 328.5,167C 331.468,169.317 334.801,170.817 338.5,171.5C 342.481,170.366 346.148,168.533 349.5,166C 392.325,135.754 435.325,105.754 478.5,76C 400.833,75.6667 323.167,75.3333 245.5,75C 240.167,70.3333 240.167,65.6667 245.5,61C 330.167,60.3333 414.833,60.3333 499.5,61C 504.689,63.6907 508.689,67.5241 511.5,72.5 Z M 180.5,83.5 C 223.287,113.113 265.954,142.947 308.5,173C 266.088,202.956 223.588,232.79 181,262.5C 180.5,202.834 180.333,143.168 180.5,83.5 Z M 495.5,83.5 C 496.665,142.999 496.832,202.665 496,262.5C 479.413,251.123 462.913,239.623 446.5,228C 436.043,224.47 431.876,227.97 434,238.5C 448.556,249.389 463.389,259.889 478.5,270C 385.167,270.667 291.833,270.667 198.5,270C 240.011,241.152 281.511,212.319 323,183.5C 327.885,185.962 333.052,187.296 338.5,187.5C 344.088,187.015 349.421,185.848 354.5,184C 372.167,196.333 389.833,208.667 407.5,221C 417.667,223.5 421.5,219.667 419,209.5C 402.097,196.965 384.93,184.798 367.5,173C 410.408,143.391 453.075,113.557 495.5,83.5 Z"/></g>
<g><path style="opacity:0.922" fill="#000000" d="M -0.5,222.5 C -0.5,211.5 -0.5,200.5 -0.5,189.5C 4.43209,154.126 20.4321,124.96 47.5,102C 62.674,94.3858 77.674,94.7191 92.5,103C 109.305,118.804 125.805,134.971 142,151.5C 152.922,166.244 153.255,181.244 143,196.5C 130.377,206.121 118.044,216.121 106,226.5C 99.6689,237.212 100.336,247.545 108,257.5C 131.311,295.145 162.144,324.978 200.5,347C 209.955,350.803 218.622,349.47 226.5,343C 236.021,330.3 246.021,317.967 256.5,306C 270.955,298.164 284.955,298.831 298.5,308C 313.667,323.167 328.833,338.333 344,353.5C 357.589,371.575 357.922,389.908 345,408.5C 334.25,419.589 322.083,428.755 308.5,436C 297.84,437.846 294.34,433.68 298,423.5C 311.077,416.76 322.743,408.094 333,397.5C 340.558,386.283 340.224,375.283 332,364.5C 317.5,350 303,335.5 288.5,321C 281.581,315.886 274.248,315.22 266.5,319C 256.121,331.044 246.121,343.377 236.5,356C 223.619,365.776 209.619,367.776 194.5,362C 148.615,336.449 113.115,300.615 88,254.5C 82.016,235.933 86.516,220.433 101.5,208C 111.283,201.218 120.783,194.051 130,186.5C 136,178.5 136,170.5 130,162.5C 115.5,148 101,133.5 86.5,119C 77.6565,112.103 67.9898,110.77 57.5,115C 35.9322,133.281 22.4322,156.447 17,184.5C 14.7798,200.891 15.1131,217.225 18,233.5C 38.1271,317.946 87.2938,378.779 165.5,416C 186.624,425.375 208.624,431.708 231.5,435C 245.216,435.571 258.882,435.238 272.5,434C 276.753,437.42 277.587,441.587 275,446.5C 274.097,447.701 272.931,448.535 271.5,449C 242.154,453.916 213.487,451.249 185.5,441C 82.2193,403.225 20.2193,330.392 -0.5,222.5 Z"/></g>
</svg>
