<?xml version="1.0" encoding="UTF-8"?>
<!DOCTYPE svg PUBLIC "-//W3C//DTD SVG 1.1//EN" "http://www.w3.org/Graphics/SVG/1.1/DTD/svg11.dtd">
<svg xmlns="http://www.w3.org/2000/svg" version="1.1" width="320px" height="320px" style="shape-rendering:geometricPrecision; text-rendering:geometricPrecision; image-rendering:optimizeQuality; fill-rule:evenodd; clip-rule:evenodd" xmlns:xlink="http://www.w3.org/1999/xlink">
<g><path style="opacity:0.937" fill="#000000" d="M 247.5,29.5 C 278.706,25.3334 299.206,38.0001 309,67.5C 309.886,76.895 309.553,86.2284 308,95.5C 292.196,126.774 276.696,158.107 261.5,189.5C 260.167,189.5 258.833,189.5 257.5,189.5C 243.242,159.65 228.408,129.983 213,100.5C 203.474,74.0947 209.974,52.5947 232.5,36C 237.455,33.5226 242.455,31.356 247.5,29.5 Z M 254.5,50.5 C 269.801,49.2328 280.635,55.5662 287,69.5C 290.968,86.6053 285.134,99.1053 269.5,107C 252.395,110.968 239.895,105.134 232,89.5C 227.662,69.4938 235.162,56.4938 254.5,50.5 Z"/></g>
<g><path style="opacity:0.937" fill="#000000" d="M 319.5,246.5 C 319.5,247.833 319.5,249.167 319.5,250.5C 292.817,263.529 266.15,276.529 239.5,289.5C 212.866,276.558 186.2,263.558 159.5,250.5C 132.8,263.558 106.134,276.558 79.5,289.5C 52.8496,276.529 26.1829,263.529 -0.5,250.5C -0.5,249.167 -0.5,247.833 -0.5,246.5C 19.6453,208.28 39.1453,169.614 58,130.5C 58.5613,129.978 59.228,129.645 60,129.5C 73.0044,142.504 86.3377,155.171 100,167.5C 119.713,154.615 139.546,141.949 159.5,129.5C 179.213,141.373 198.546,153.873 217.5,167C 220.167,166.333 222.833,165.667 225.5,165C 228.311,171.105 231.311,177.105 234.5,183C 233.899,184.605 232.899,185.938 231.5,187C 237.038,212.054 242.205,237.22 247,262.5C 261.756,254.872 276.589,247.372 291.5,240C 285.244,228.155 279.244,216.155 273.5,204C 277.217,196.347 281.217,188.847 285.5,181.5C 297.101,203.036 308.434,224.703 319.5,246.5 Z M 148.5,161.5 C 149.829,184.67 149.829,208.003 148.5,231.5C 130.64,240.401 112.807,249.401 95,258.5C 99.2252,235.165 103.892,211.832 109,188.5C 122.146,179.354 135.313,170.354 148.5,161.5 Z M 169.5,161.5 C 183.229,170.118 196.729,179.118 210,188.5C 215.045,211.853 219.712,235.186 224,258.5C 206.193,249.401 188.36,240.401 170.5,231.5C 169.5,208.176 169.167,184.843 169.5,161.5 Z M 64.5,164.5 C 72.2983,171.798 79.9649,179.298 87.5,187C 81.9619,212.054 76.7953,237.22 72,262.5C 57.2445,254.872 42.4111,247.372 27.5,240C 40.5064,215.154 52.8397,189.987 64.5,164.5 Z"/></g>
</svg>
