<?xml version="1.0" encoding="UTF-8"?>
<!DOCTYPE svg PUBLIC "-//W3C//DTD SVG 1.1//EN" "http://www.w3.org/Graphics/SVG/1.1/DTD/svg11.dtd">
<svg xmlns="http://www.w3.org/2000/svg" version="1.1" width="512px" height="512px" style="shape-rendering:geometricPrecision; text-rendering:geometricPrecision; image-rendering:optimizeQuality; fill-rule:evenodd; clip-rule:evenodd" xmlns:xlink="http://www.w3.org/1999/xlink">
<g><path style="opacity:0.932" fill="#000000" d="M 511.5,316.5 C 511.5,325.5 511.5,334.5 511.5,343.5C 500.419,388.895 471.419,413.562 424.5,417.5C 394.313,416.493 370.48,403.827 353,379.5C 352.228,385.235 349.062,388.735 343.5,390C 327.833,390.667 312.167,390.667 296.5,390C 289.013,385.394 288.679,380.394 295.5,375C 309.496,374.5 323.496,374.333 337.5,374.5C 339.147,360.113 341.814,345.946 345.5,332C 325.601,331.859 306.935,327.025 289.5,317.5C 282.62,339.616 267.62,349.116 244.5,346C 237.23,344.367 231.23,340.7 226.5,335C 213.5,334.333 200.5,334.333 187.5,335C 196.377,347.921 205.377,360.754 214.5,373.5C 232.157,374.333 249.824,374.833 267.5,375C 271.277,377.911 272.444,381.744 271,386.5C 269.786,388.049 268.286,389.215 266.5,390C 247.833,390.667 229.167,390.667 210.5,390C 208.754,389.529 207.087,388.862 205.5,388C 194.279,373.112 183.445,357.945 173,342.5C 164.467,383.033 139.967,407.533 99.5,416C 53.9009,420.007 22.0676,401.174 4,359.5C 2.47318,354.044 0.973182,348.711 -0.5,343.5C -0.5,334.5 -0.5,325.5 -0.5,316.5C 10.0465,270.296 39.0465,245.629 86.5,242.5C 114.621,243.062 137.621,254.062 155.5,275.5C 165.301,271.434 174.634,266.601 183.5,261C 182.037,257.549 179.871,254.715 177,252.5C 168.702,253.415 160.369,254.081 152,254.5C 140.511,254.755 130.344,251.255 121.5,244C 107.352,231.762 93.0183,219.762 78.5,208C 62.7188,207.859 49.8855,201.692 40,189.5C 30.2396,176.983 20.2396,164.65 10,152.5C 5.30898,141.904 8.14231,134.071 18.5,129C 29.2174,128.125 39.8841,128.459 50.5,130C 55.2798,131.556 59.6131,133.889 63.5,137C 68.3653,142.2 73.5319,147.033 79,151.5C 86.6681,146.833 94.8348,145.666 103.5,148C 114.738,154.452 126.404,160.118 138.5,165C 151.478,170.082 164.811,172.916 178.5,173.5C 190.117,157.038 205.117,144.872 223.5,137C 235.34,133.371 247.34,132.705 259.5,135C 284.369,138.959 308.035,146.293 330.5,157C 321.226,146.142 321.559,135.475 331.5,125C 340.767,119.05 350.101,119.05 359.5,125C 369.441,131.221 378.941,138.054 388,145.5C 389.608,148.382 390.941,151.382 392,154.5C 393.57,151.367 393.903,148.033 393,144.5C 391.236,135.88 389.07,127.38 386.5,119C 387.058,110.879 391.058,105.213 398.5,102C 403.552,98.1374 409.219,95.9707 415.5,95.5C 421.551,95.2751 426.384,97.6084 430,102.5C 443.333,117.833 456.667,133.167 470,148.5C 474.064,154.236 477.73,160.236 481,166.5C 486.929,181.954 492.263,197.621 497,213.5C 498.521,222.291 495.354,228.791 487.5,233C 478.121,234.785 468.788,236.785 459.5,239C 469.526,242.76 478.693,247.926 487,254.5C 489.611,259.282 490.111,264.282 488.5,269.5C 500.739,282.977 508.405,298.643 511.5,316.5 Z M 453.5,155.5 C 447.056,156.029 441.889,153.695 438,148.5C 429.833,136.333 421.667,124.167 413.5,112C 415.367,111.289 416.867,111.789 418,113.5C 430.044,127.373 441.877,141.373 453.5,155.5 Z M 407.5,133.5 C 414.803,142.749 421.636,152.416 428,162.5C 431.785,165.642 435.952,168.142 440.5,170C 449.253,171.174 457.92,172.674 466.5,174.5C 469.633,180.901 471.967,187.567 473.5,194.5C 463.902,195.05 455.736,198.717 449,205.5C 444.683,211.563 444.516,217.73 448.5,224C 430.275,228.851 412.942,235.851 396.5,245C 392.049,247.783 387.883,250.95 384,254.5C 368.747,237.759 350.247,226.092 328.5,219.5C 346.106,210.197 364.106,201.697 382.5,194C 405.148,179.919 413.481,159.752 407.5,133.5 Z M 343.5,136.5 C 345.655,136.372 347.655,136.872 349.5,138C 358,143.833 366.5,149.667 375,155.5C 377.068,161.871 379.235,168.204 381.5,174.5C 379.083,177.083 376.249,179.083 373,180.5C 370.48,174.612 368.147,168.612 366,162.5C 357.667,156.5 349.333,150.5 341,144.5C 339.837,141.029 340.67,138.362 343.5,136.5 Z M 24.5,145.5 C 32.8336,143.878 41.167,144.378 49.5,147C 63.3767,159.714 77.3767,172.214 91.5,184.5C 85.2778,187.407 78.7778,189.407 72,190.5C 67.8641,190.344 64.0308,189.177 60.5,187C 48.3643,173.188 36.3643,159.355 24.5,145.5 Z M 239.5,149.5 C 264.002,151.367 287.669,156.867 310.5,166C 316.089,168.599 321.423,171.599 326.5,175C 304.044,185.728 281.71,196.728 259.5,208C 249.687,214.103 242.021,222.27 236.5,232.5C 221.713,215.876 206.713,199.376 191.5,183C 200.671,171.157 211.671,161.491 224.5,154C 229.535,152.151 234.535,150.651 239.5,149.5 Z M 92.5,163.5 C 95.0679,162.357 97.7346,162.524 100.5,164C 123.863,178.345 149.197,187.345 176.5,191C 181.534,195.699 186.2,200.699 190.5,206C 180.394,208.421 170.228,210.588 160,212.5C 155.12,212.125 150.62,210.625 146.5,208C 128.653,192.92 110.653,178.086 92.5,163.5 Z M 344.5,184.5 C 348.44,184.758 352.107,185.924 355.5,188C 330.973,198.93 306.973,210.93 283.5,224C 271.298,232.375 262.631,243.542 257.5,257.5C 252.533,258.662 247.533,258.829 242.5,258C 245.856,250.787 249.356,243.621 253,236.5C 256.131,232.367 259.631,228.534 263.5,225C 290.034,210.4 317.034,196.9 344.5,184.5 Z M 106.5,196.5 C 117.292,204.786 127.959,213.286 138.5,222C 146.006,226.044 154.006,228.544 162.5,229.5C 164.043,232.086 165.709,234.586 167.5,237C 156.412,239.781 145.746,238.781 135.5,234C 121.875,223.378 108.542,212.378 95.5,201C 99.307,199.572 102.974,198.072 106.5,196.5 Z M 471.5,210.5 C 474.167,210.5 476.833,210.5 479.5,210.5C 479.665,212.827 480.331,214.993 481.5,217C 474.85,220.711 468.517,220.211 462.5,215.5C 465.221,213.266 468.221,211.599 471.5,210.5 Z M 199.5,220.5 C 200.873,220.343 202.207,220.51 203.5,221C 212.217,230.047 220.551,239.381 228.5,249C 225.473,258.903 220.306,267.403 213,274.5C 201.833,258.167 190.667,241.833 179.5,225.5C 186.285,223.815 192.951,222.149 199.5,220.5 Z M 300.5,232.5 C 323.348,233.26 343.681,240.76 361.5,255C 365.535,258.7 369.202,262.7 372.5,267C 362.444,281.781 354.777,297.781 349.5,315C 327.24,316.247 306.907,310.58 288.5,298C 284.049,289.882 277.883,283.382 270,278.5C 271.424,257.305 281.591,241.972 300.5,232.5 Z M 423.5,249.5 C 440.106,249.092 455.439,253.259 469.5,262C 456.659,266.759 443.659,270.926 430.5,274.5C 427.964,266.225 425.63,257.891 423.5,249.5 Z M 406.5,257.5 C 407.75,257.577 408.583,258.244 409,259.5C 416.535,281.771 423.868,304.104 431,326.5C 432,334.5 429,336.5 422,332.5C 414.299,309.729 406.799,286.896 399.5,264C 401.665,261.669 403.999,259.502 406.5,257.5 Z M 76.5,258.5 C 101.556,256.29 122.556,264.29 139.5,282.5C 135.22,285.224 130.72,287.557 126,289.5C 100.02,268.526 73.8534,268.359 47.5,289C 31.1711,306.453 26.6711,326.619 34,349.5C 46.9103,376.874 68.4103,388.374 98.5,384C 114.376,380.157 126.543,371.324 135,357.5C 137.06,352.552 139.227,347.718 141.5,343C 146.533,342.171 151.533,342.338 156.5,343.5C 146.791,379.204 123.458,398.538 86.5,401.5C 48.7274,398.225 25.2274,378.225 16,341.5C 13.3561,297.004 33.5228,269.337 76.5,258.5 Z M 243.5,274.5 C 246.833,274.5 250.167,274.5 253.5,274.5C 253.063,279.412 253.896,284.078 256,288.5C 261.211,291.443 265.878,295.11 270,299.5C 276.076,311.936 273.242,321.77 261.5,329C 254.532,331.37 247.865,330.703 241.5,327C 235.821,319.211 228.154,316.211 218.5,318C 214.049,296.06 222.383,281.56 243.5,274.5 Z M 192.5,275.5 C 196.988,279.934 200.655,285.101 203.5,291C 200.467,299.999 199.8,309.165 201.5,318.5C 192.827,318.334 184.16,318.5 175.5,319C 173.024,320.309 171.024,322.142 169.5,324.5C 167.234,325.314 164.9,325.814 162.5,326C 135.843,327.6 109.176,328.6 82.5,329C 119.105,310.863 155.771,293.03 192.5,275.5 Z M 385.5,275.5 C 387.397,278.505 388.73,281.838 389.5,285.5C 368.269,305.374 363.435,328.708 375,355.5C 389.175,379.165 410.008,388.665 437.5,384C 456.622,379.376 469.622,367.876 476.5,349.5C 473.22,340.745 468.053,339.411 461,345.5C 452.462,362.523 438.629,370.356 419.5,369C 398.502,364.166 386.836,350.999 384.5,329.5C 385.172,319.642 388.672,310.976 395,303.5C 399.473,316.587 404.14,329.587 409,342.5C 420.667,354.5 432.333,354.5 444,342.5C 447.248,336.548 448.248,330.215 447,323.5C 443.632,313.728 440.465,303.895 437.5,294C 437.833,293.5 438.167,293 438.5,292.5C 451.015,298.182 459.515,307.515 464,320.5C 468.962,323.649 473.295,322.982 477,318.5C 477.738,314.739 477.405,311.072 476,307.5C 471.703,297.867 465.203,290.034 456.5,284C 461.938,281.633 467.438,279.466 473,277.5C 495.292,299.608 501.292,325.608 491,355.5C 475.571,389.135 449.404,403.968 412.5,400C 387.567,394.782 369.734,380.615 359,357.5C 357.682,354.594 357.348,351.594 358,348.5C 362.562,322.299 371.729,297.965 385.5,275.5 Z M 83.5,289.5 C 92.8163,289.384 101.15,292.051 108.5,297.5C 97.3199,303.256 85.9866,308.756 74.5,314C 66.1142,320.652 64.2809,328.819 69,338.5C 71.2643,341.433 74.0976,343.6 77.5,345C 92.9199,345.327 108.253,344.994 123.5,344C 112.088,366.36 94.4215,373.694 70.5,366C 51.6321,356.096 44.1321,340.596 48,319.5C 53.9355,302.389 65.7688,292.389 83.5,289.5 Z"/></g>
</svg>
