<?xml version="1.0" encoding="UTF-8"?>
<!DOCTYPE svg PUBLIC "-//W3C//DTD SVG 1.1//EN" "http://www.w3.org/Graphics/SVG/1.1/DTD/svg11.dtd">
<svg xmlns="http://www.w3.org/2000/svg" version="1.1" width="512px" height="512px" style="shape-rendering:geometricPrecision; text-rendering:geometricPrecision; image-rendering:optimizeQuality; fill-rule:evenodd; clip-rule:evenodd" xmlns:xlink="http://www.w3.org/1999/xlink">
<g><path style="opacity:0.963" fill="#000000" d="M 233.5,-0.5 C 248.167,-0.5 262.833,-0.5 277.5,-0.5C 371.886,11.0786 441.386,58.7453 486,142.5C 499.666,171.509 508.166,201.843 511.5,233.5C 511.5,248.167 511.5,262.833 511.5,277.5C 499.921,371.886 452.255,441.386 368.5,486C 339.491,499.666 309.157,508.166 277.5,511.5C 262.833,511.5 248.167,511.5 233.5,511.5C 139.114,499.921 69.6135,452.255 25,368.5C 11.3344,339.491 2.83436,309.157 -0.5,277.5C -0.5,262.833 -0.5,248.167 -0.5,233.5C 11.0786,139.114 58.7453,69.6135 142.5,25C 171.509,11.3344 201.843,2.83436 233.5,-0.5 Z M 234.5,30.5 C 331.597,26.2852 404.763,65.6186 454,148.5C 485.632,211.339 488.965,275.672 464,341.5C 435.214,406.977 386.714,450.477 318.5,472C 242.169,491.935 173.169,477.602 111.5,429C 52.6192,377.703 25.7859,312.87 31,234.5C 40.83,155.613 79.9967,96.4462 148.5,57C 175.639,42.7838 204.306,33.9505 234.5,30.5 Z M 243.5,121.5 C 283.186,118.413 310.686,135.08 326,171.5C 334.451,200.928 328.285,226.761 307.5,249C 298.066,255.468 288.899,262.301 280,269.5C 273.114,278.661 269.947,288.994 270.5,300.5C 260.494,300.666 250.494,300.5 240.5,300C 241.834,268.362 256.501,245.362 284.5,231C 297.82,218.709 302.987,203.542 300,185.5C 291.599,159.541 273.765,148.041 246.5,151C 229.97,154.595 218.637,164.262 212.5,180C 202.483,180.832 192.483,180.666 182.5,179.5C 191.529,148.172 211.862,128.839 243.5,121.5 Z M 250.5,361.5 C 264.652,360.151 270.819,366.485 269,380.5C 263.135,390.246 255.301,392.08 245.5,386C 238.906,376.014 240.573,367.848 250.5,361.5 Z"/></g>
<g><path style="opacity:0.968" fill="#000000" d="M 241.5,90.5 C 293.254,86.9465 330.421,108.28 353,154.5C 371.409,212.789 354.909,258.123 303.5,290.5C 302.03,293.308 301.197,296.308 301,299.5C 300.5,309.828 300.334,320.161 300.5,330.5C 288.829,330.333 277.162,330.5 265.5,331C 291.767,339.68 303.267,357.847 300,385.5C 291.32,411.767 273.153,423.267 245.5,420C 219.233,411.32 207.733,393.153 211,365.5C 215.833,347.333 227.333,335.833 245.5,331C 233.838,330.5 222.171,330.333 210.5,330.5C 210.333,315.163 210.5,299.83 211,284.5C 216.695,249.503 234.862,223.336 265.5,206C 272.124,196.163 270.457,188.163 260.5,182C 251.947,179.862 245.781,182.695 242,190.5C 240.726,197.103 240.226,203.77 240.5,210.5C 210.5,210.5 180.5,210.5 150.5,210.5C 146.644,158.352 167.977,120.852 214.5,98C 223.417,94.6909 232.417,92.1909 241.5,90.5 Z M 243.5,121.5 C 211.862,128.839 191.529,148.172 182.5,179.5C 192.483,180.666 202.483,180.832 212.5,180C 218.637,164.262 229.97,154.595 246.5,151C 273.765,148.041 291.599,159.541 300,185.5C 302.987,203.542 297.82,218.709 284.5,231C 256.501,245.362 241.834,268.362 240.5,300C 250.494,300.5 260.494,300.666 270.5,300.5C 269.947,288.994 273.114,278.661 280,269.5C 288.899,262.301 298.066,255.468 307.5,249C 328.285,226.761 334.451,200.928 326,171.5C 310.686,135.08 283.186,118.413 243.5,121.5 Z M 250.5,361.5 C 240.573,367.848 238.906,376.014 245.5,386C 255.301,392.08 263.135,390.246 269,380.5C 270.819,366.485 264.652,360.151 250.5,361.5 Z"/></g>
</svg>
