<?xml version="1.0" standalone="no"?>
<!DOCTYPE svg PUBLIC "-//W3C//DTD SVG 20010904//EN"
 "http://www.w3.org/TR/2001/REC-SVG-20010904/DTD/svg10.dtd">
<svg version="1.0" xmlns="http://www.w3.org/2000/svg"
 width="601.000000pt" height="601.000000pt" viewBox="0 0 601.000000 601.000000"
 preserveAspectRatio="xMidYMid meet">

<g transform="translate(0.000000,601.000000) scale(0.100000,-0.100000)"
fill="#000000" stroke="none">
<path d="M2389 4606 c-53 -19 -106 -54 -127 -84 -18 -25 -1462 -3115 -1462
-3127 0 -3 185 -4 411 -3 l411 3 521 1118 c287 614 526 1117 532 1117 7 0 65
-114 130 -252 65 -139 125 -267 132 -283 14 -30 9 -43 -367 -850 -210 -451
-386 -828 -391 -837 -9 -17 13 -18 403 -18 l413 0 521 1118 c287 614 528 1118
535 1119 9 2 60 -95 148 -285 153 -327 159 -353 103 -404 l-32 -28 -168 0
-168 0 -23 -47 c-53 -110 -321 -691 -321 -696 0 -4 369 -7 820 -7 l820 0 0
369 0 369 -369 792 c-203 435 -381 809 -395 831 -16 23 -47 50 -79 66 l-52 28
-258 3 c-411 5 -399 13 -582 -386 -66 -144 -125 -262 -130 -262 -6 0 -67 120
-135 268 -183 393 -168 382 -559 382 -175 -1 -256 -5 -282 -14z"/>
</g>
</svg>
