<svg width="0" height="0" class="hidden">
  <symbol xmlns="http://www.w3.org/2000/svg" version="1.1" xmlns:xlink="http://www.w3.org/1999/xlink" viewBox="0 0 512px 512px" id="beetle">
    <g>
      <path fill="#000000" d="M 511.5,292.5 C 511.5,295.167 511.5,297.833 511.5,300.5C 509.641,302.573 507.308,303.906 504.5,304.5C 503.668,313.816 503.168,323.149 503,332.5C 501.786,334.049 500.286,335.215 498.5,336C 492.141,336.169 485.807,336.669 479.5,337.5C 471.77,371.399 450.604,389.732 416,392.5C 380.26,390.255 359.093,371.589 352.5,336.5C 290.5,336.5 228.5,336.5 166.5,336.5C 159.907,371.589 138.74,390.255 103,392.5C 68.3964,389.732 47.2297,371.399 39.5,337.5C 31.1866,336.668 22.8532,336.168 14.5,336C 6.38905,334.052 2.05571,328.885 1.5,320.5C 2.84186,314.814 4.17519,309.147 5.5,303.5C 3.05322,303.385 1.05322,302.385 -0.5,300.5C -0.5,297.833 -0.5,295.167 -0.5,292.5C 2.54217,289.256 6.37551,287.589 11,287.5C 21.3863,246.063 39.7197,208.73 66,175.5C 95.5032,142 132.67,123.833 177.5,121C 216.904,117.302 256.237,117.968 295.5,123C 304.777,125.053 312.61,129.553 319,136.5C 332.5,157.333 346,178.167 359.5,199C 382.969,200.48 406.302,203.147 429.5,207C 448.505,209.752 464.671,217.919 478,231.5C 483.513,239.858 489.513,247.858 496,255.5C 502.44,265.593 504.94,276.593 503.5,288.5C 506.852,288.53 509.518,289.863 511.5,292.5 Z M 205.5,134.5 C 224.852,134.3 244.185,134.8 263.5,136C 274.996,136.444 286.33,137.944 297.5,140.5C 298.833,141.167 298.833,141.833 297.5,142.5C 291.549,143.932 289.049,147.599 290,153.5C 296.895,168.289 304.061,182.956 311.5,197.5C 308.167,198.833 304.833,198.833 301.5,197.5C 295.942,184.05 290.108,170.716 284,157.5C 279.768,151.274 273.934,147.441 266.5,146C 232.508,141.494 198.842,143.161 165.5,151C 144.899,156.64 127.732,167.474 114,183.5C 107.674,191.98 104.507,201.48 104.5,212C 85.8979,215.761 67.8979,221.094 50.5,228C 62.104,205.816 77.104,186.149 95.5,169C 111.289,155.772 129.289,146.772 149.5,142C 168.161,138.335 186.828,135.835 205.5,134.5 Z M 309.5,155.5 C 310.822,155.33 311.989,155.663 313,156.5C 321.459,170.588 330.292,184.421 339.5,198C 336.118,198.824 332.784,198.657 329.5,197.5C 322.271,183.71 315.604,169.71 309.5,155.5 Z M 212.5,159.5 C 230.977,158.853 249.311,160.02 267.5,163C 273.695,174.391 279.362,186.058 284.5,198C 229.93,198.035 175.596,201.535 121.5,208.5C 122.988,199.158 127.321,191.324 134.5,185C 145.772,176.031 158.439,169.697 172.5,166C 185.817,162.841 199.15,160.674 212.5,159.5 Z M 241.5,214.5 C 282.845,214.195 324.178,214.695 365.5,216C 387.733,216.823 409.733,219.49 431.5,224C 397.8,222.943 369.3,234.443 346,258.5C 342.498,262.751 342.164,267.085 345,271.5C 347.917,273.393 351.084,273.893 354.5,273C 381.282,243.468 413.949,234.135 452.5,245C 460.608,248.22 468.274,252.22 475.5,257C 484.908,265.386 488.908,275.886 487.5,288.5C 482.782,288.74 480.116,291.24 479.5,296C 480.22,300.388 482.72,303.221 487,304.5C 487.499,309.823 487.666,315.156 487.5,320.5C 484.833,320.5 482.167,320.5 479.5,320.5C 472.863,285.363 451.696,266.696 416,264.5C 380.293,266.708 359.126,285.375 352.5,320.5C 347.167,320.5 341.833,320.5 336.5,320.5C 336.485,316.44 336.985,312.44 338,308.5C 339.944,302.17 341.778,295.837 343.5,289.5C 341.845,281.84 337.512,279.84 330.5,283.5C 324.31,294.903 320.644,307.069 319.5,320C 276.833,320.667 234.167,320.667 191.5,320C 189.684,304.218 184.851,289.385 177,275.5C 173.547,272.231 169.714,271.731 165.5,274C 163.703,275.594 162.703,277.594 162.5,280C 165.798,288.099 168.965,296.266 172,304.5C 173.546,309.73 174.38,315.063 174.5,320.5C 171.833,320.5 169.167,320.5 166.5,320.5C 159.874,285.375 138.707,266.708 103,264.5C 67.3127,266.687 46.1461,285.353 39.5,320.5C 32.5,320.5 25.5,320.5 18.5,320.5C 19.6272,315.118 20.9606,309.784 22.5,304.5C 25.8499,304.665 29.1832,304.498 32.5,304C 39.0094,301.12 40.5094,296.62 37,290.5C 34.0696,288.934 30.9029,288.1 27.5,288C 30.4016,278.297 33.9016,268.797 38,259.5C 41.6709,253.497 46.8376,249.331 53.5,247C 88.8298,234.164 120.496,240.164 148.5,265C 155.206,267.647 159.539,265.481 161.5,258.5C 160.818,255.634 159.484,253.134 157.5,251C 144.396,239.612 129.396,231.612 112.5,227C 155.377,220.012 198.377,215.846 241.5,214.5 Z M 95.5,280.5 C 118.831,278.745 135.998,288.078 147,308.5C 156.515,337.627 147.681,359.127 120.5,373C 88.0107,381.171 66.5107,369.338 56,337.5C 53.3947,307.331 66.5613,288.331 95.5,280.5 Z M 407.5,280.5 C 436.624,278.628 455.124,291.628 463,319.5C 465.38,350.24 451.546,369.074 421.5,376C 397.707,377.193 380.873,367.026 371,345.5C 363.962,322.619 369.795,303.785 388.5,289C 394.453,285.081 400.786,282.248 407.5,280.5 Z"></path>
    </g>
    <g>
      <path fill="#000000" d="M 96.5,296.5 C 100.911,296.021 105.078,296.688 109,298.5C 112.242,302.621 112.075,306.621 108.5,310.5C 103.811,311.894 99.1448,313.394 94.5,315C 85.5361,323.34 85.2027,332.007 93.5,341C 102.607,346.564 110.441,345.064 117,336.5C 118.625,332.668 119.625,328.668 120,324.5C 122.602,320.788 126.102,319.622 130.5,321C 132.815,322.109 134.315,323.943 135,326.5C 135.382,342.785 127.882,353.619 112.5,359C 91.9739,363.157 78.4739,355.323 72,335.5C 69.5585,315.697 77.7252,302.697 96.5,296.5 Z"></path>
    </g>
    <g>
      <path fill="#000000" d="M 408.5,296.5 C 412.182,296.335 415.848,296.501 419.5,297C 424.446,301.3 424.779,305.967 420.5,311C 408.637,311.235 401.637,317.068 399.5,328.5C 403.261,343.215 411.927,347.382 425.5,341C 427.378,339.457 428.878,337.624 430,335.5C 430.957,331.044 432.29,326.711 434,322.5C 438.962,319.351 443.295,320.018 447,324.5C 447.805,346.031 437.472,358.031 416,360.5C 392,357.167 381.667,343.5 385,319.5C 388.779,307.553 396.612,299.886 408.5,296.5 Z"></path>
    </g>
  </symbol>
  <symbol xmlns="http://www.w3.org/2000/svg" version="1.1" xmlns:xlink="http://www.w3.org/1999/xlink" viewBox="0 0 512px 512px" id="car">
    <g>
      <path fill="#000000" d="M 511.5,264.5 C 511.5,279.167 511.5,293.833 511.5,308.5C 506.891,323.385 497.057,329.051 482,325.5C 478.682,319.941 479.848,315.441 485.5,312C 490.341,312.17 493.508,310.004 495,305.5C 496.511,294.878 496.844,284.211 496,273.5C 489.779,271.727 483.279,270.894 476.5,271C 469.833,266 469.833,261 476.5,256C 480.167,255.667 483.833,255.333 487.5,255C 480.28,250.702 472.614,247.369 464.5,245C 438.017,237.502 411.017,233.169 383.5,232C 318.5,231.667 253.5,231.333 188.5,231C 182.741,227.108 182.074,222.441 186.5,217C 196.061,215.552 205.727,215.052 215.5,215.5C 215.5,202.167 215.5,188.833 215.5,175.5C 199.163,175.333 182.83,175.5 166.5,176C 160.705,176.592 155.039,177.759 149.5,179.5C 146.123,191.043 143.123,202.71 140.5,214.5C 148.581,215.061 156.581,215.895 164.5,217C 168.809,222.42 168.142,227.086 162.5,231C 149.947,232.339 137.613,231.339 125.5,228C 121.172,226.171 117.172,223.838 113.5,221C 107.957,215.121 102.123,209.621 96,204.5C 85.5985,209.523 74.7652,213.356 63.5,216C 49.2022,218.246 34.8689,220.246 20.5,222C 18.3333,222.833 16.8333,224.333 16,226.5C 14.7101,230.73 14.2101,235.064 14.5,239.5C 18.5138,239.334 22.5138,239.501 26.5,240C 33.2554,245.484 32.922,250.484 25.5,255C 21.8484,255.499 18.1817,255.665 14.5,255.5C 14.3337,262.841 14.5003,270.174 15,277.5C 15.5362,284.076 18.7028,288.909 24.5,292C 34.7268,295.306 45.0601,298.14 55.5,300.5C 60.0595,269.446 78.0595,254.613 109.5,256C 135.335,261.336 149.335,277.17 151.5,303.5C 151.297,306.197 150.964,308.864 150.5,311.5C 223.167,311.5 295.833,311.5 368.5,311.5C 365.771,287.122 375.438,269.622 397.5,259C 421.159,251.286 440.659,257.119 456,276.5C 469.875,302.813 465.375,325.313 442.5,344C 415.339,357.871 392.673,352.704 374.5,328.5C 297.833,327.167 221.167,327.167 144.5,328.5C 129.449,349.905 109.449,356.405 84.5,348C 71.0447,341.877 61.7114,331.877 56.5,318C 41.5162,314.256 26.8495,309.589 12.5,304C 6.27472,299.01 1.94138,292.843 -0.5,285.5C -0.5,264.5 -0.5,243.5 -0.5,222.5C 2.22525,215.272 7.22525,210.106 14.5,207C 32.6112,204.653 50.6112,201.653 68.5,198C 87.8633,189.819 106.863,180.819 125.5,171C 138.23,165.151 151.563,161.484 165.5,160C 197.5,159.333 229.5,159.333 261.5,160C 276.318,161.717 290.318,166.051 303.5,173C 325.5,187 347.5,201 369.5,215C 401.659,215.811 433.326,220.145 464.5,228C 476.108,231.306 487.108,235.973 497.5,242C 504.115,248.415 508.782,255.915 511.5,264.5 Z M 231.5,175.5 C 255.31,172.911 277.643,177.411 298.5,189C 311.998,197.916 325.664,206.583 339.5,215C 303.502,215.5 267.502,215.667 231.5,215.5C 231.5,202.167 231.5,188.833 231.5,175.5 Z M 128.5,187.5 C 129.376,187.369 130.043,187.702 130.5,188.5C 128.604,195.479 126.771,202.479 125,209.5C 120.651,205.318 116.485,200.985 112.5,196.5C 117.896,193.473 123.229,190.473 128.5,187.5 Z M 98.5,271.5 C 118.358,270.862 130.524,280.196 135,299.5C 135.712,317.899 127.212,329.732 109.5,335C 90.3845,336.874 77.8845,328.708 72,310.5C 70.0661,289.969 78.8994,276.969 98.5,271.5 Z M 410.5,271.5 C 436.295,271.794 448.462,284.794 447,310.5C 441.116,328.708 428.616,336.874 409.5,335C 390.162,328.679 381.995,315.512 385,295.5C 389.192,282.805 397.692,274.805 410.5,271.5 Z"></path>
    </g>
    <g>
      <path fill="#000000" d="M 172.5,279.5 C 230.501,279.333 288.501,279.5 346.5,280C 351.069,282.541 352.569,286.375 351,291.5C 349.786,293.049 348.286,294.215 346.5,295C 288.5,295.667 230.5,295.667 172.5,295C 167.311,292.087 166.144,287.92 169,282.5C 170.145,281.364 171.312,280.364 172.5,279.5 Z"></path>
    </g>
    <g>
      <path fill="#000000" d="M 107.5,289.5 C 115.985,290.798 118.485,295.465 115,303.5C 110.833,307.667 106.667,311.833 102.5,316C 91.9638,318.797 88.1305,314.964 91,304.5C 96.1207,298.87 101.621,293.87 107.5,289.5 Z"></path>
    </g>
    <g>
      <path fill="#000000" d="M 409.5,289.5 C 411.179,289.892 412.846,290.392 414.5,291C 419,295.5 423.5,300 428,304.5C 430.87,314.964 427.036,318.797 416.5,316C 412.333,311.833 408.167,307.667 404,303.5C 400.739,296.539 402.573,291.872 409.5,289.5 Z"></path>
    </g>
  </symbol>
  <symbol xmlns="http://www.w3.org/2000/svg" version="1.1" xmlns:xlink="http://www.w3.org/1999/xlink" viewBox="0 0 512px 512px" id="case">
    <g>
      <path fill="#000000" d="M 511.5,138.5 C 511.5,183.5 511.5,228.5 511.5,273.5C 508.881,283.069 504.381,291.736 498,299.5C 497.667,347.167 497.333,394.833 497,442.5C 493.382,462.788 482.215,477.288 463.5,486C 458.658,487.948 453.658,489.281 448.5,490C 319.833,490.667 191.167,490.667 62.5,490C 39.7738,485.944 24.2738,473.111 16,451.5C 15.2057,448.529 14.539,445.529 14,442.5C 13.6667,394.833 13.3333,347.167 13,299.5C 6.61894,291.736 2.11894,283.069 -0.5,273.5C -0.5,228.5 -0.5,183.5 -0.5,138.5C 5.87274,112.63 22.2061,97.1299 48.5,92C 76.1647,91.5 103.831,91.3334 131.5,91.5C 134.258,52.2427 154.924,28.7427 193.5,21C 234.833,20.3333 276.167,20.3333 317.5,21C 348.613,26.4459 368.78,44.2792 378,74.5C 378.895,80.0379 379.728,85.5379 380.5,91C 407.833,91.3333 435.167,91.6667 462.5,92C 488.794,97.1299 505.127,112.63 511.5,138.5 Z M 200.5,49.5 C 237.168,49.3333 273.835,49.5 310.5,50C 334.466,53.4678 347.799,67.3011 350.5,91.5C 287.167,91.5 223.833,91.5 160.5,91.5C 163.338,67.3322 176.671,53.3322 200.5,49.5 Z M 49.5,111.5 C 108.5,111.5 167.5,111.5 226.5,111.5C 226.5,162.167 226.5,212.833 226.5,263.5C 245.833,263.5 265.167,263.5 284.5,263.5C 284.5,212.833 284.5,162.167 284.5,111.5C 343.501,111.333 402.501,111.5 461.5,112C 476.891,115.724 486.724,125.224 491,140.5C 492.626,181.471 492.96,222.471 492,263.5C 489.13,285.037 476.963,297.204 455.5,300C 407.501,300.5 359.501,300.667 311.5,300.5C 311.5,306.833 311.5,313.167 311.5,319.5C 362.501,319.667 413.501,319.5 464.5,319C 468.648,318.339 472.648,317.173 476.5,315.5C 477.667,357.163 477.833,398.829 477,440.5C 473.167,456.333 463.333,466.167 447.5,470C 319.5,470.667 191.5,470.667 63.5,470C 47.6667,466.167 37.8333,456.333 34,440.5C 33.1667,398.829 33.3334,357.163 34.5,315.5C 38.3517,317.173 42.3517,318.339 46.5,319C 97.4989,319.5 148.499,319.667 199.5,319.5C 199.5,313.167 199.5,306.833 199.5,300.5C 151.499,300.667 103.499,300.5 55.5,300C 34.0369,297.204 21.8703,285.037 19,263.5C 18.3333,224.833 18.3333,186.167 19,147.5C 21.1304,128.547 31.2971,116.547 49.5,111.5 Z"></path>
    </g>
    <g>
      <path fill="#000000" d="M 226.5,290.5 C 245.833,290.5 265.167,290.5 284.5,290.5C 284.5,309.833 284.5,329.167 284.5,348.5C 265.167,348.5 245.833,348.5 226.5,348.5C 226.5,329.167 226.5,309.833 226.5,290.5 Z"></path>
    </g>
  </symbol>
  <symbol xmlns="http://www.w3.org/2000/svg" version="1.1" xmlns:xlink="http://www.w3.org/1999/xlink" viewBox="0 0 512px 512px" id="contacts">
    <g>
      <path fill="#000000" d="M 511.5,72.5 C 511.5,139.5 511.5,206.5 511.5,273.5C 508.346,280.267 503.013,284.433 495.5,286C 389.132,286.989 282.798,286.656 176.5,285C 170.508,282.341 166.675,277.841 165,271.5C 164.333,205.833 164.333,140.167 165,74.5C 166.736,67.7634 170.903,63.2634 177.5,61C 191.927,60.0349 206.26,60.3682 220.5,62C 223.167,66 223.167,70 220.5,74C 213.272,75.2635 205.939,75.9301 198.5,76C 241.833,106.333 285.167,136.667 328.5,167C 331.468,169.317 334.801,170.817 338.5,171.5C 342.481,170.366 346.148,168.533 349.5,166C 392.325,135.754 435.325,105.754 478.5,76C 400.833,75.6667 323.167,75.3333 245.5,75C 240.167,70.3333 240.167,65.6667 245.5,61C 330.167,60.3333 414.833,60.3333 499.5,61C 504.689,63.6907 508.689,67.5241 511.5,72.5 Z M 180.5,83.5 C 223.287,113.113 265.954,142.947 308.5,173C 266.088,202.956 223.588,232.79 181,262.5C 180.5,202.834 180.333,143.168 180.5,83.5 Z M 495.5,83.5 C 496.665,142.999 496.832,202.665 496,262.5C 479.413,251.123 462.913,239.623 446.5,228C 436.043,224.47 431.876,227.97 434,238.5C 448.556,249.389 463.389,259.889 478.5,270C 385.167,270.667 291.833,270.667 198.5,270C 240.011,241.152 281.511,212.319 323,183.5C 327.885,185.962 333.052,187.296 338.5,187.5C 344.088,187.015 349.421,185.848 354.5,184C 372.167,196.333 389.833,208.667 407.5,221C 417.667,223.5 421.5,219.667 419,209.5C 402.097,196.965 384.93,184.798 367.5,173C 410.408,143.391 453.075,113.557 495.5,83.5 Z"></path>
    </g>
    <g>
      <path fill="#000000" d="M -0.5,222.5 C -0.5,211.5 -0.5,200.5 -0.5,189.5C 4.43209,154.126 20.4321,124.96 47.5,102C 62.674,94.3858 77.674,94.7191 92.5,103C 109.305,118.804 125.805,134.971 142,151.5C 152.922,166.244 153.255,181.244 143,196.5C 130.377,206.121 118.044,216.121 106,226.5C 99.6689,237.212 100.336,247.545 108,257.5C 131.311,295.145 162.144,324.978 200.5,347C 209.955,350.803 218.622,349.47 226.5,343C 236.021,330.3 246.021,317.967 256.5,306C 270.955,298.164 284.955,298.831 298.5,308C 313.667,323.167 328.833,338.333 344,353.5C 357.589,371.575 357.922,389.908 345,408.5C 334.25,419.589 322.083,428.755 308.5,436C 297.84,437.846 294.34,433.68 298,423.5C 311.077,416.76 322.743,408.094 333,397.5C 340.558,386.283 340.224,375.283 332,364.5C 317.5,350 303,335.5 288.5,321C 281.581,315.886 274.248,315.22 266.5,319C 256.121,331.044 246.121,343.377 236.5,356C 223.619,365.776 209.619,367.776 194.5,362C 148.615,336.449 113.115,300.615 88,254.5C 82.016,235.933 86.516,220.433 101.5,208C 111.283,201.218 120.783,194.051 130,186.5C 136,178.5 136,170.5 130,162.5C 115.5,148 101,133.5 86.5,119C 77.6565,112.103 67.9898,110.77 57.5,115C 35.9322,133.281 22.4322,156.447 17,184.5C 14.7798,200.891 15.1131,217.225 18,233.5C 38.1271,317.946 87.2938,378.779 165.5,416C 186.624,425.375 208.624,431.708 231.5,435C 245.216,435.571 258.882,435.238 272.5,434C 276.753,437.42 277.587,441.587 275,446.5C 274.097,447.701 272.931,448.535 271.5,449C 242.154,453.916 213.487,451.249 185.5,441C 82.2193,403.225 20.2193,330.392 -0.5,222.5 Z"></path>
    </g>
  </symbol>
  <symbol xmlns="http://www.w3.org/2000/svg" version="1.1" xmlns:xlink="http://www.w3.org/1999/xlink" viewBox="0 0 320px 320px" id="maps-icon-16">
    <g>
      <path fill="#000000" d="M 247.5,29.5 C 278.706,25.3334 299.206,38.0001 309,67.5C 309.886,76.895 309.553,86.2284 308,95.5C 292.196,126.774 276.696,158.107 261.5,189.5C 260.167,189.5 258.833,189.5 257.5,189.5C 243.242,159.65 228.408,129.983 213,100.5C 203.474,74.0947 209.974,52.5947 232.5,36C 237.455,33.5226 242.455,31.356 247.5,29.5 Z M 254.5,50.5 C 269.801,49.2328 280.635,55.5662 287,69.5C 290.968,86.6053 285.134,99.1053 269.5,107C 252.395,110.968 239.895,105.134 232,89.5C 227.662,69.4938 235.162,56.4938 254.5,50.5 Z"></path>
    </g>
    <g>
      <path fill="#000000" d="M 319.5,246.5 C 319.5,247.833 319.5,249.167 319.5,250.5C 292.817,263.529 266.15,276.529 239.5,289.5C 212.866,276.558 186.2,263.558 159.5,250.5C 132.8,263.558 106.134,276.558 79.5,289.5C 52.8496,276.529 26.1829,263.529 -0.5,250.5C -0.5,249.167 -0.5,247.833 -0.5,246.5C 19.6453,208.28 39.1453,169.614 58,130.5C 58.5613,129.978 59.228,129.645 60,129.5C 73.0044,142.504 86.3377,155.171 100,167.5C 119.713,154.615 139.546,141.949 159.5,129.5C 179.213,141.373 198.546,153.873 217.5,167C 220.167,166.333 222.833,165.667 225.5,165C 228.311,171.105 231.311,177.105 234.5,183C 233.899,184.605 232.899,185.938 231.5,187C 237.038,212.054 242.205,237.22 247,262.5C 261.756,254.872 276.589,247.372 291.5,240C 285.244,228.155 279.244,216.155 273.5,204C 277.217,196.347 281.217,188.847 285.5,181.5C 297.101,203.036 308.434,224.703 319.5,246.5 Z M 148.5,161.5 C 149.829,184.67 149.829,208.003 148.5,231.5C 130.64,240.401 112.807,249.401 95,258.5C 99.2252,235.165 103.892,211.832 109,188.5C 122.146,179.354 135.313,170.354 148.5,161.5 Z M 169.5,161.5 C 183.229,170.118 196.729,179.118 210,188.5C 215.045,211.853 219.712,235.186 224,258.5C 206.193,249.401 188.36,240.401 170.5,231.5C 169.5,208.176 169.167,184.843 169.5,161.5 Z M 64.5,164.5 C 72.2983,171.798 79.9649,179.298 87.5,187C 81.9619,212.054 76.7953,237.22 72,262.5C 57.2445,254.872 42.4111,247.372 27.5,240C 40.5064,215.154 52.8397,189.987 64.5,164.5 Z"></path>
    </g>
  </symbol>
  <symbol xmlns="http://www.w3.org/2000/svg" version="1.1" xmlns:xlink="http://www.w3.org/1999/xlink" viewBox="0 0 512px 512px" id="motorbike">
    <g>
      <path fill="#000000" d="M 511.5,316.5 C 511.5,325.5 511.5,334.5 511.5,343.5C 500.419,388.895 471.419,413.562 424.5,417.5C 394.313,416.493 370.48,403.827 353,379.5C 352.228,385.235 349.062,388.735 343.5,390C 327.833,390.667 312.167,390.667 296.5,390C 289.013,385.394 288.679,380.394 295.5,375C 309.496,374.5 323.496,374.333 337.5,374.5C 339.147,360.113 341.814,345.946 345.5,332C 325.601,331.859 306.935,327.025 289.5,317.5C 282.62,339.616 267.62,349.116 244.5,346C 237.23,344.367 231.23,340.7 226.5,335C 213.5,334.333 200.5,334.333 187.5,335C 196.377,347.921 205.377,360.754 214.5,373.5C 232.157,374.333 249.824,374.833 267.5,375C 271.277,377.911 272.444,381.744 271,386.5C 269.786,388.049 268.286,389.215 266.5,390C 247.833,390.667 229.167,390.667 210.5,390C 208.754,389.529 207.087,388.862 205.5,388C 194.279,373.112 183.445,357.945 173,342.5C 164.467,383.033 139.967,407.533 99.5,416C 53.9009,420.007 22.0676,401.174 4,359.5C 2.47318,354.044 0.973182,348.711 -0.5,343.5C -0.5,334.5 -0.5,325.5 -0.5,316.5C 10.0465,270.296 39.0465,245.629 86.5,242.5C 114.621,243.062 137.621,254.062 155.5,275.5C 165.301,271.434 174.634,266.601 183.5,261C 182.037,257.549 179.871,254.715 177,252.5C 168.702,253.415 160.369,254.081 152,254.5C 140.511,254.755 130.344,251.255 121.5,244C 107.352,231.762 93.0183,219.762 78.5,208C 62.7188,207.859 49.8855,201.692 40,189.5C 30.2396,176.983 20.2396,164.65 10,152.5C 5.30898,141.904 8.14231,134.071 18.5,129C 29.2174,128.125 39.8841,128.459 50.5,130C 55.2798,131.556 59.6131,133.889 63.5,137C 68.3653,142.2 73.5319,147.033 79,151.5C 86.6681,146.833 94.8348,145.666 103.5,148C 114.738,154.452 126.404,160.118 138.5,165C 151.478,170.082 164.811,172.916 178.5,173.5C 190.117,157.038 205.117,144.872 223.5,137C 235.34,133.371 247.34,132.705 259.5,135C 284.369,138.959 308.035,146.293 330.5,157C 321.226,146.142 321.559,135.475 331.5,125C 340.767,119.05 350.101,119.05 359.5,125C 369.441,131.221 378.941,138.054 388,145.5C 389.608,148.382 390.941,151.382 392,154.5C 393.57,151.367 393.903,148.033 393,144.5C 391.236,135.88 389.07,127.38 386.5,119C 387.058,110.879 391.058,105.213 398.5,102C 403.552,98.1374 409.219,95.9707 415.5,95.5C 421.551,95.2751 426.384,97.6084 430,102.5C 443.333,117.833 456.667,133.167 470,148.5C 474.064,154.236 477.73,160.236 481,166.5C 486.929,181.954 492.263,197.621 497,213.5C 498.521,222.291 495.354,228.791 487.5,233C 478.121,234.785 468.788,236.785 459.5,239C 469.526,242.76 478.693,247.926 487,254.5C 489.611,259.282 490.111,264.282 488.5,269.5C 500.739,282.977 508.405,298.643 511.5,316.5 Z M 453.5,155.5 C 447.056,156.029 441.889,153.695 438,148.5C 429.833,136.333 421.667,124.167 413.5,112C 415.367,111.289 416.867,111.789 418,113.5C 430.044,127.373 441.877,141.373 453.5,155.5 Z M 407.5,133.5 C 414.803,142.749 421.636,152.416 428,162.5C 431.785,165.642 435.952,168.142 440.5,170C 449.253,171.174 457.92,172.674 466.5,174.5C 469.633,180.901 471.967,187.567 473.5,194.5C 463.902,195.05 455.736,198.717 449,205.5C 444.683,211.563 444.516,217.73 448.5,224C 430.275,228.851 412.942,235.851 396.5,245C 392.049,247.783 387.883,250.95 384,254.5C 368.747,237.759 350.247,226.092 328.5,219.5C 346.106,210.197 364.106,201.697 382.5,194C 405.148,179.919 413.481,159.752 407.5,133.5 Z M 343.5,136.5 C 345.655,136.372 347.655,136.872 349.5,138C 358,143.833 366.5,149.667 375,155.5C 377.068,161.871 379.235,168.204 381.5,174.5C 379.083,177.083 376.249,179.083 373,180.5C 370.48,174.612 368.147,168.612 366,162.5C 357.667,156.5 349.333,150.5 341,144.5C 339.837,141.029 340.67,138.362 343.5,136.5 Z M 24.5,145.5 C 32.8336,143.878 41.167,144.378 49.5,147C 63.3767,159.714 77.3767,172.214 91.5,184.5C 85.2778,187.407 78.7778,189.407 72,190.5C 67.8641,190.344 64.0308,189.177 60.5,187C 48.3643,173.188 36.3643,159.355 24.5,145.5 Z M 239.5,149.5 C 264.002,151.367 287.669,156.867 310.5,166C 316.089,168.599 321.423,171.599 326.5,175C 304.044,185.728 281.71,196.728 259.5,208C 249.687,214.103 242.021,222.27 236.5,232.5C 221.713,215.876 206.713,199.376 191.5,183C 200.671,171.157 211.671,161.491 224.5,154C 229.535,152.151 234.535,150.651 239.5,149.5 Z M 92.5,163.5 C 95.0679,162.357 97.7346,162.524 100.5,164C 123.863,178.345 149.197,187.345 176.5,191C 181.534,195.699 186.2,200.699 190.5,206C 180.394,208.421 170.228,210.588 160,212.5C 155.12,212.125 150.62,210.625 146.5,208C 128.653,192.92 110.653,178.086 92.5,163.5 Z M 344.5,184.5 C 348.44,184.758 352.107,185.924 355.5,188C 330.973,198.93 306.973,210.93 283.5,224C 271.298,232.375 262.631,243.542 257.5,257.5C 252.533,258.662 247.533,258.829 242.5,258C 245.856,250.787 249.356,243.621 253,236.5C 256.131,232.367 259.631,228.534 263.5,225C 290.034,210.4 317.034,196.9 344.5,184.5 Z M 106.5,196.5 C 117.292,204.786 127.959,213.286 138.5,222C 146.006,226.044 154.006,228.544 162.5,229.5C 164.043,232.086 165.709,234.586 167.5,237C 156.412,239.781 145.746,238.781 135.5,234C 121.875,223.378 108.542,212.378 95.5,201C 99.307,199.572 102.974,198.072 106.5,196.5 Z M 471.5,210.5 C 474.167,210.5 476.833,210.5 479.5,210.5C 479.665,212.827 480.331,214.993 481.5,217C 474.85,220.711 468.517,220.211 462.5,215.5C 465.221,213.266 468.221,211.599 471.5,210.5 Z M 199.5,220.5 C 200.873,220.343 202.207,220.51 203.5,221C 212.217,230.047 220.551,239.381 228.5,249C 225.473,258.903 220.306,267.403 213,274.5C 201.833,258.167 190.667,241.833 179.5,225.5C 186.285,223.815 192.951,222.149 199.5,220.5 Z M 300.5,232.5 C 323.348,233.26 343.681,240.76 361.5,255C 365.535,258.7 369.202,262.7 372.5,267C 362.444,281.781 354.777,297.781 349.5,315C 327.24,316.247 306.907,310.58 288.5,298C 284.049,289.882 277.883,283.382 270,278.5C 271.424,257.305 281.591,241.972 300.5,232.5 Z M 423.5,249.5 C 440.106,249.092 455.439,253.259 469.5,262C 456.659,266.759 443.659,270.926 430.5,274.5C 427.964,266.225 425.63,257.891 423.5,249.5 Z M 406.5,257.5 C 407.75,257.577 408.583,258.244 409,259.5C 416.535,281.771 423.868,304.104 431,326.5C 432,334.5 429,336.5 422,332.5C 414.299,309.729 406.799,286.896 399.5,264C 401.665,261.669 403.999,259.502 406.5,257.5 Z M 76.5,258.5 C 101.556,256.29 122.556,264.29 139.5,282.5C 135.22,285.224 130.72,287.557 126,289.5C 100.02,268.526 73.8534,268.359 47.5,289C 31.1711,306.453 26.6711,326.619 34,349.5C 46.9103,376.874 68.4103,388.374 98.5,384C 114.376,380.157 126.543,371.324 135,357.5C 137.06,352.552 139.227,347.718 141.5,343C 146.533,342.171 151.533,342.338 156.5,343.5C 146.791,379.204 123.458,398.538 86.5,401.5C 48.7274,398.225 25.2274,378.225 16,341.5C 13.3561,297.004 33.5228,269.337 76.5,258.5 Z M 243.5,274.5 C 246.833,274.5 250.167,274.5 253.5,274.5C 253.063,279.412 253.896,284.078 256,288.5C 261.211,291.443 265.878,295.11 270,299.5C 276.076,311.936 273.242,321.77 261.5,329C 254.532,331.37 247.865,330.703 241.5,327C 235.821,319.211 228.154,316.211 218.5,318C 214.049,296.06 222.383,281.56 243.5,274.5 Z M 192.5,275.5 C 196.988,279.934 200.655,285.101 203.5,291C 200.467,299.999 199.8,309.165 201.5,318.5C 192.827,318.334 184.16,318.5 175.5,319C 173.024,320.309 171.024,322.142 169.5,324.5C 167.234,325.314 164.9,325.814 162.5,326C 135.843,327.6 109.176,328.6 82.5,329C 119.105,310.863 155.771,293.03 192.5,275.5 Z M 385.5,275.5 C 387.397,278.505 388.73,281.838 389.5,285.5C 368.269,305.374 363.435,328.708 375,355.5C 389.175,379.165 410.008,388.665 437.5,384C 456.622,379.376 469.622,367.876 476.5,349.5C 473.22,340.745 468.053,339.411 461,345.5C 452.462,362.523 438.629,370.356 419.5,369C 398.502,364.166 386.836,350.999 384.5,329.5C 385.172,319.642 388.672,310.976 395,303.5C 399.473,316.587 404.14,329.587 409,342.5C 420.667,354.5 432.333,354.5 444,342.5C 447.248,336.548 448.248,330.215 447,323.5C 443.632,313.728 440.465,303.895 437.5,294C 437.833,293.5 438.167,293 438.5,292.5C 451.015,298.182 459.515,307.515 464,320.5C 468.962,323.649 473.295,322.982 477,318.5C 477.738,314.739 477.405,311.072 476,307.5C 471.703,297.867 465.203,290.034 456.5,284C 461.938,281.633 467.438,279.466 473,277.5C 495.292,299.608 501.292,325.608 491,355.5C 475.571,389.135 449.404,403.968 412.5,400C 387.567,394.782 369.734,380.615 359,357.5C 357.682,354.594 357.348,351.594 358,348.5C 362.562,322.299 371.729,297.965 385.5,275.5 Z M 83.5,289.5 C 92.8163,289.384 101.15,292.051 108.5,297.5C 97.3199,303.256 85.9866,308.756 74.5,314C 66.1142,320.652 64.2809,328.819 69,338.5C 71.2643,341.433 74.0976,343.6 77.5,345C 92.9199,345.327 108.253,344.994 123.5,344C 112.088,366.36 94.4215,373.694 70.5,366C 51.6321,356.096 44.1321,340.596 48,319.5C 53.9355,302.389 65.7688,292.389 83.5,289.5 Z"></path>
    </g>
  </symbol>
  <symbol xmlns="http://www.w3.org/2000/svg" version="1.1" xmlns:xlink="http://www.w3.org/1999/xlink" viewBox="0 0 512px 512px" id="question">
    <g>
      <path fill="#000000" d="M 233.5,-0.5 C 248.167,-0.5 262.833,-0.5 277.5,-0.5C 371.886,11.0786 441.386,58.7453 486,142.5C 499.666,171.509 508.166,201.843 511.5,233.5C 511.5,248.167 511.5,262.833 511.5,277.5C 499.921,371.886 452.255,441.386 368.5,486C 339.491,499.666 309.157,508.166 277.5,511.5C 262.833,511.5 248.167,511.5 233.5,511.5C 139.114,499.921 69.6135,452.255 25,368.5C 11.3344,339.491 2.83436,309.157 -0.5,277.5C -0.5,262.833 -0.5,248.167 -0.5,233.5C 11.0786,139.114 58.7453,69.6135 142.5,25C 171.509,11.3344 201.843,2.83436 233.5,-0.5 Z M 234.5,30.5 C 331.597,26.2852 404.763,65.6186 454,148.5C 485.632,211.339 488.965,275.672 464,341.5C 435.214,406.977 386.714,450.477 318.5,472C 242.169,491.935 173.169,477.602 111.5,429C 52.6192,377.703 25.7859,312.87 31,234.5C 40.83,155.613 79.9967,96.4462 148.5,57C 175.639,42.7838 204.306,33.9505 234.5,30.5 Z M 243.5,121.5 C 283.186,118.413 310.686,135.08 326,171.5C 334.451,200.928 328.285,226.761 307.5,249C 298.066,255.468 288.899,262.301 280,269.5C 273.114,278.661 269.947,288.994 270.5,300.5C 260.494,300.666 250.494,300.5 240.5,300C 241.834,268.362 256.501,245.362 284.5,231C 297.82,218.709 302.987,203.542 300,185.5C 291.599,159.541 273.765,148.041 246.5,151C 229.97,154.595 218.637,164.262 212.5,180C 202.483,180.832 192.483,180.666 182.5,179.5C 191.529,148.172 211.862,128.839 243.5,121.5 Z M 250.5,361.5 C 264.652,360.151 270.819,366.485 269,380.5C 263.135,390.246 255.301,392.08 245.5,386C 238.906,376.014 240.573,367.848 250.5,361.5 Z"></path>
    </g>
    <g>
      <path fill="#000000" d="M 241.5,90.5 C 293.254,86.9465 330.421,108.28 353,154.5C 371.409,212.789 354.909,258.123 303.5,290.5C 302.03,293.308 301.197,296.308 301,299.5C 300.5,309.828 300.334,320.161 300.5,330.5C 288.829,330.333 277.162,330.5 265.5,331C 291.767,339.68 303.267,357.847 300,385.5C 291.32,411.767 273.153,423.267 245.5,420C 219.233,411.32 207.733,393.153 211,365.5C 215.833,347.333 227.333,335.833 245.5,331C 233.838,330.5 222.171,330.333 210.5,330.5C 210.333,315.163 210.5,299.83 211,284.5C 216.695,249.503 234.862,223.336 265.5,206C 272.124,196.163 270.457,188.163 260.5,182C 251.947,179.862 245.781,182.695 242,190.5C 240.726,197.103 240.226,203.77 240.5,210.5C 210.5,210.5 180.5,210.5 150.5,210.5C 146.644,158.352 167.977,120.852 214.5,98C 223.417,94.6909 232.417,92.1909 241.5,90.5 Z M 243.5,121.5 C 211.862,128.839 191.529,148.172 182.5,179.5C 192.483,180.666 202.483,180.832 212.5,180C 218.637,164.262 229.97,154.595 246.5,151C 273.765,148.041 291.599,159.541 300,185.5C 302.987,203.542 297.82,218.709 284.5,231C 256.501,245.362 241.834,268.362 240.5,300C 250.494,300.5 260.494,300.666 270.5,300.5C 269.947,288.994 273.114,278.661 280,269.5C 288.899,262.301 298.066,255.468 307.5,249C 328.285,226.761 334.451,200.928 326,171.5C 310.686,135.08 283.186,118.413 243.5,121.5 Z M 250.5,361.5 C 240.573,367.848 238.906,376.014 245.5,386C 255.301,392.08 263.135,390.246 269,380.5C 270.819,366.485 264.652,360.151 250.5,361.5 Z"></path>
    </g>
  </symbol>
  <symbol xmlns="http://www.w3.org/2000/svg" version="1.1" xmlns:xlink="http://www.w3.org/1999/xlink" viewBox="0 0 512px 512px" id="shopping-cart">
    <g>
      <path fill="#000000" d="M 511.5,99.5 C 511.5,103.5 511.5,107.5 511.5,111.5C 490.941,182.025 470.441,252.691 450,323.5C 447.795,326.04 445.295,328.207 442.5,330C 349.833,330.333 257.167,330.667 164.5,331C 153.218,332.716 148.718,339.216 151,350.5C 153.813,355.996 158.313,359.162 164.5,360C 257.167,360.333 349.833,360.667 442.5,361C 450.915,365.348 453.748,372.181 451,381.5C 449.5,385.667 446.667,388.5 442.5,390C 433.833,390.333 425.167,390.667 416.5,391C 442.767,399.68 454.267,417.847 451,445.5C 442.32,471.767 424.153,483.267 396.5,480C 370.233,471.32 358.733,453.153 362,425.5C 366.833,407.333 378.333,395.833 396.5,391C 332.5,390.333 268.5,390.333 204.5,391C 230.767,399.68 242.267,417.847 239,445.5C 230.32,471.767 212.153,483.267 184.5,480C 158.233,471.32 146.733,453.153 150,425.5C 154.833,407.333 166.333,395.833 184.5,391C 174.5,390.667 164.5,390.333 154.5,390C 128.541,381.599 117.041,363.765 120,336.5C 123.458,322.211 131.625,311.544 144.5,304.5C 144.833,303.667 145.167,302.833 145.5,302C 127.511,221.551 109.844,141.051 92.5,60.5C 64.498,60.6666 36.498,60.5 8.5,60C 4.31481,58.3122 1.31481,55.4788 -0.5,51.5C -0.5,47.5 -0.5,43.5 -0.5,39.5C 1.31481,35.5212 4.31481,32.6878 8.5,31C 42.5,30.3333 76.5,30.3333 110.5,31C 113.295,32.7932 115.795,34.9598 118,37.5C 122.482,54.7608 126.649,72.0941 130.5,89.5C 254.165,90.3333 377.832,90.8333 501.5,91C 505.934,92.6058 509.268,95.4391 511.5,99.5 Z M 137.5,120.5 C 250.167,120.5 362.833,120.5 475.5,120.5C 459.006,180.482 442.006,240.315 424.5,300C 341.834,300.5 259.167,300.667 176.5,300.5C 163.501,240.504 150.501,180.504 137.5,120.5 Z M 189.5,421.5 C 203.652,420.151 209.819,426.485 208,440.5C 202.135,450.246 194.301,452.08 184.5,446C 177.906,436.014 179.573,427.848 189.5,421.5 Z M 401.5,421.5 C 415.652,420.151 421.819,426.485 420,440.5C 414.135,450.246 406.301,452.08 396.5,446C 389.906,436.014 391.573,427.848 401.5,421.5 Z"></path>
    </g>
  </symbol>
</svg>